<svg xmlns="http://www.w3.org/2000/svg" width="24" height="24" fill="none">
  <path fill="#000" d="M0 0h24v24H0z"/>
  <path fill="#fff" d="M8 23h1v1H8zm-1 0h1v1H7zm2 0h1v1H9zm-1-1h1v1H8zm-1 0h1v1H7zm2 0h1v1H9zm-1-1h1v1H8zm-1 0h1v1H7zm2 0h1v1H9zm-1-1h1v1H8zm-1 0h1v1H7zm2 0h1v1H9zm2 0h1v1h-1zm-1 0h1v1h-1zm2 0h1v1h-1zm2 0h1v1h-1zm-1 0h1v1h-1zm-5-1h1v1H8zm-1 0h1v1H7zm2 0h1v1H9zm2 0h1v1h-1zm-1 0h1v1h-1zm2 0h1v1h-1zm2 0h1v1h-1zm-1 0h1v1h-1zm2 0h1v1h-1zm-7-1h1v1H8zm-1 0h1v1H7zm2 0h1v1H9zm2 0h1v1h-1zm-1 0h1v1h-1zm2 0h1v1h-1zm2 0h1v1h-1zm-1 0h1v1h-1zm2 0h1v1h-1zm-7-1h1v1H8zm-1 0h1v1H7zm2 0h1v1H9zm2 0h1v1h-1zm-1 0h1v1h-1zm2 0h1v1h-1zm2 0h1v1h-1zm-1 0h1v1h-1zm2 0h1v1h-1zm-7-1h1v1H8zm-1 0h1v1H7zm2 0h1v1H9zm2 0h1v1h-1zm-1 0h1v1h-1zm2 0h1v1h-1zm2 0h1v1h-1zm-1 0h1v1h-1zm2 0h1v1h-1zm-7-1h1v1H8zm-1 0h1v1H7zm-1 0h1v1H6zm0-1h1v1H6zm0-1h1v1H6zm0-1h1v1H6zm-1 0h1v1H5zm0-3h1v1H5zm0-2h1v1H5zm1 4h1v1H6zm0-1h1v1H6zm0-1h1v1H6zm0-1h1v1H6zm0-1h1v1H6zm0-1h1v1H6zm-1 8h1v1H5zm0-1h1v1H5zm4 2h1v1H9zm2 0h1v1h-1zm-1 0h1v1h-1zm2 0h1v1h-1zm2 0h1v1h-1zm-1 0h1v1h-1zm2 0h1v1h-1zm-7-1h1v1H8zm-1 0h1v1H7zm2 0h1v1H9zm2 0h1v1h-1zm-1 0h1v1h-1zm2 0h1v1h-1zm2 0h1v1h-1zm-1 0h1v1h-1zm2 0h1v1h-1zm-7-1h1v1H8zm-1 0h1v1H7zm2 0h1v1H9zm2 0h1v1h-1zm-1 0h1v1h-1zm2 0h1v1h-1zm2 0h1v1h-1zm-1 0h1v1h-1zm2 0h1v1h-1zm-7-1h1v1H8zm-1 0h1v1H7zm2 0h1v1H9zm2 0h1v1h-1zm-1 0h1v1h-1zm2 0h1v1h-1zm2 0h1v1h-1zm-1 0h1v1h-1zm2 0h1v1h-1zm-7-1h1v1H8zm-1 0h1v1H7zm2 0h1v1H9zm2 0h1v1h-1zm-1 0h1v1h-1zm2 0h1v1h-1zm2 0h1v1h-1zm-1 0h1v1h-1zm2 0h1v1h-1zm-7-1h1v1H8zm-1 0h1v1H7zm2 0h1v1H9zm2 0h1v1h-1zm-1 0h1v1h-1zm2 0h1v1h-1zm2 0h1v1h-1zm-1 0h1v1h-1zm2 0h1v1h-1zM8 9h1v1H8zM7 9h1v1H7zm2 0h1v1H9zm2 0h1v1h-1zm-1 0h1v1h-1zm2 0h1v1h-1zm2 0h1v1h-1zm-1 0h1v1h-1zm2 0h1v1h-1zm1 0h1v1h-1zM8 8h1v1H8zM7 8h1v1H7zm2 0h1v1H9zm2 0h1v1h-1zm-1 0h1v1h-1zm2 0h1v1h-1zm2 0h1v1h-1zm-1 0h1v1h-1zm2 0h1v1h-1zM8 7h1v1H8zM7 7h1v1H7zm2 0h1v1H9zm2 0h1v1h-1zm-1 0h1v1h-1zm2 0h1v1h-1zm2 0h1v1h-1zm-1 0h1v1h-1zm2 0h1v1h-1zM8 6h1v1H8zM7 6h1v1H7zm2 0h1v1H9zm2 0h1v1h-1zm-1 0h1v1h-1zm2 0h1v1h-1zm2 0h1v1h-1zm-1 0h1v1h-1zm2 0h1v1h-1zm1 0h1v1h-1zM8 5h1v1H8zM7 5h1v1H7zm2 0h1v1H9zm2 0h1v1h-1zm-1 0h1v1h-1zm2 0h1v1h-1zm1 0h1v1h-1zm2 0h1v1h-1z"/>
</svg>
